<?xml version="1.0" encoding="utf-8"?>
<!-- Generator: Adobe Illustrator 21.1.0, SVG Export Plug-In . SVG Version: 6.00 Build 0)  -->
<svg version="1.1" id="Слой_1" xmlns="http://www.w3.org/2000/svg" xmlns:xlink="http://www.w3.org/1999/xlink" x="0px" y="0px"
	 viewBox="0 0 64 64" style="enable-background:new 0 0 64 64;" xml:space="preserve">
<style type="text/css">
	.st0{display:none;}
	.st1{display:inline;}
	.st2{fill:#FF8080;}
	.st3{fill:#80FFFC;}
</style>
<g id="Слой_1_1_" class="st0">
	<g class="st1">
		<g>
			<path class="st2" d="M32,0C14.3,0,0,14.3,0,32s14.3,32,32,32s32-14.3,32-32S49.7,0,32,0z M32,54.5C19.6,54.5,9.5,44.4,9.5,32
				S19.6,9.5,32,9.5S54.5,19.6,54.5,32S44.4,54.5,32,54.5z"/>
		</g>
		<circle class="st2" cx="0" cy="18" r="0"/>
	</g>
</g>
<g id="Слой_2">
	<g>
		<polygon class="st3" points="40,32 64,56 56,64 32,40 8,64 0,56 24,32 0,8 8,0 32,24 56,0 64,8 		"/>
	</g>
</g>
</svg>
